<!-- Generator: Adobe Illustrator 17.0.0, SVG Export Plug-In  -->
<svg version="1.1"
	 xmlns="http://www.w3.org/2000/svg" xmlns:xlink="http://www.w3.org/1999/xlink" xmlns:a="http://ns.adobe.com/AdobeSVGViewerExtensions/3.0/"
	 x="0px" y="0px" width="180px" height="180px" viewBox="0 0 180 180" enable-background="new 0 0 180 180" xml:space="preserve">
<defs>
</defs>
<g>
	<path d="M148.922,75.891c0-45.75-24.609-61.313-47.625-64.781c0-0.234,0.047-0.469,0.047-0.75C101.344,4.594,96.234,0,90,0
		c-6.234,0-11.156,4.594-11.156,10.359c0,0.281,0,0.516,0.047,0.75c-23.062,3.516-47.812,19.125-47.812,64.875
		c0,53.344-13.266,59.062-31.078,74.062h180C162.281,135,148.922,129.234,148.922,75.891z"/>
	<path d="M90.094,180c12.562,0,22.875-9.328,24.234-20.156H65.859C67.172,170.672,77.531,180,90.094,180z"/>
</g>
</svg>
