<!-- Generator: Adobe Illustrator 17.0.0, SVG Export Plug-In  -->
<svg version="1.1"
	 xmlns="http://www.w3.org/2000/svg" xmlns:xlink="http://www.w3.org/1999/xlink" xmlns:a="http://ns.adobe.com/AdobeSVGViewerExtensions/3.0/"
	 x="0px" y="0px" width="180px" height="146.922px" viewBox="0 0 180 146.922" enable-background="new 0 0 180 146.922"
	 xml:space="preserve">
<defs>
</defs>
<g id="Group_1_" transform="translate(-672.000000, -192.000000)">
	<path id="Oval_247_copy_1_" d="M744.728,326.267c-8.595,0-16.842-1.147-24.496-3.253c-9.206,6.974-23.78,15.909-38.021,15.909
		c7.151-6.769,9.621-19.335,10.367-29.606C679.843,299.24,672,285.486,672,270.322c0-30.897,32.561-55.944,72.728-55.944
		s72.728,25.047,72.728,55.944S784.894,326.267,744.728,326.267z M731.808,204.918C744.412,196.852,760.616,192,778.294,192
		c40.166,0,72.728,25.047,72.728,55.944c0,10.138-3.505,19.646-9.635,27.846c-0.258,9.811,0.451,31.135,10.613,40.754
		c-14.254,0-28.842-8.952-38.047-15.928c9.246-10.102,14.691-22.496,14.691-35.889c0-33.987-35.066-61.539-78.322-61.539
		C743.944,203.189,737.744,203.788,731.808,204.918z"/>
</g>
</svg>
