<!-- Generator: Adobe Illustrator 17.0.0, SVG Export Plug-In  -->
<svg version="1.1"
	 xmlns="http://www.w3.org/2000/svg" xmlns:xlink="http://www.w3.org/1999/xlink" xmlns:a="http://ns.adobe.com/AdobeSVGViewerExtensions/3.0/"
	 x="0px" y="0px" width="180px" height="152.171px" viewBox="0 0 180 152.171" enable-background="new 0 0 180 152.171"
	 xml:space="preserve">
<defs>
</defs>
<path d="M180,48.304C180,21.626,158.305,0,131.538,0C113.907,0,98.48,9.387,90.001,23.418C81.523,9.387,66.093,0,48.462,0
	C21.695,0,0,21.626,0,48.304c0,13.882,5.886,26.388,15.294,35.198h-0.013l69.381,66.174c1.273,1.524,3.181,2.495,5.321,2.495
	c1.982,0,3.766-0.838,5.029-2.176l69.717-66.493h-0.021C174.118,74.693,180,62.187,180,48.304"/>
</svg>
