<!-- Generator: Adobe Illustrator 17.0.0, SVG Export Plug-In  -->
<svg version="1.1"
	 xmlns="http://www.w3.org/2000/svg" xmlns:xlink="http://www.w3.org/1999/xlink" xmlns:a="http://ns.adobe.com/AdobeSVGViewerExtensions/3.0/"
	 x="0px" y="0px" width="180px" height="134.343px" viewBox="0 0 180 134.343" enable-background="new 0 0 180 134.343"
	 xml:space="preserve">
<defs>
</defs>
<g>
	<path d="M0,119.878c0-5.636,0-10.004,0-15.781c7.663,0,14.995-0.466,22.242,0.122c8.328,0.676,14.301-1.969,20.248-8.12
		c22.71-23.487,46.261-46.16,69.018-69.603c5.497-5.662,11.039-8.042,18.681-7.467c6.755,0.507,13.579,0.106,21.239,0.106
		c0-7.259,0-13.931,0-19.136c9.393,9.236,19.11,18.79,28.403,27.927c-7.991,7.927-17.597,17.456-27.546,27.326
		c0-6.043,0-12.615,0-19.577c-14.94-1.46-27.166-2.158-38.488,10.486c-20.973,23.422-44.308,44.717-66.31,67.239
		c-4.799,4.913-9.651,6.918-16.384,6.6C21.072,119.527,11.004,119.878,0,119.878z"/>
	<path d="M180,106.79c-7.933,7.941-17.346,17.364-27.526,27.553c0-6.993,0-13.558,0-21.604c-9.406,0-17.909,0.482-26.314-0.21
		c-3.998-0.33-8.585-2.013-11.564-4.617c-9.361-8.186-18.086-17.099-26.919-25.599c4.093-4.686,7.335-8.398,11.629-13.315
		c6.118,6.675,11.703,12.052,16.429,18.1c6.241,7.986,13.827,11.435,23.909,9.949c3.709-0.547,7.566-0.088,11.972-0.088
		c0-7.345,0-13.786,0-18.511C160.674,87.492,170.298,97.102,180,106.79z"/>
	<path d="M0.024,27.779c0-5.677,0-10.048,0-15.682c13.012,0,25.937-0.055,38.859,0.084c1.298,0.014,2.863,0.917,3.832,1.882
		C55.061,26.356,67.32,38.737,79.905,51.401c-3.826,3.796-7.314,7.256-11.41,11.32c-9.211-9.431-18.58-18.501-27.299-28.157
		c-4.816-5.334-10.031-7.428-17.117-6.91C16.458,28.211,8.765,27.779,0.024,27.779z"/>
</g>
</svg>
