<!-- Generator: Adobe Illustrator 17.0.0, SVG Export Plug-In  -->
<svg version="1.1"
	 xmlns="http://www.w3.org/2000/svg" xmlns:xlink="http://www.w3.org/1999/xlink" xmlns:a="http://ns.adobe.com/AdobeSVGViewerExtensions/3.0/"
	 x="0px" y="0px" width="180px" height="160.891px" viewBox="0 0 180 160.891" enable-background="new 0 0 180 160.891"
	 xml:space="preserve">
<defs>
</defs>
<g>
	<path d="M161.215,102.4c2.308-7.375,3.64-15.176,3.64-23.288c0-43.303-34.957-78.554-78.122-79.111v25.411
		c29.159,0.558,52.723,24.41,52.723,53.7c0,4.065-0.528,7.987-1.391,11.788l-23.762-11.788l16.549,49.161L180,111.712L161.215,102.4
		z"/>
	<path d="M40.545,81.773c0-4.065,0.528-7.987,1.391-11.794l23.762,11.794L49.149,32.612L0,49.173l18.785,9.312
		c-2.302,7.375-3.64,15.176-3.64,23.294c0,43.309,34.957,78.548,78.128,79.111V135.48C64.109,134.922,40.545,111.064,40.545,81.773z
		"/>
</g>
</svg>
