<!-- Generator: Adobe Illustrator 17.0.0, SVG Export Plug-In  -->
<svg version="1.1"
	 xmlns="http://www.w3.org/2000/svg" xmlns:xlink="http://www.w3.org/1999/xlink" xmlns:a="http://ns.adobe.com/AdobeSVGViewerExtensions/3.0/"
	 x="0px" y="0px" width="180px" height="180px" viewBox="0 0 180 180" enable-background="new 0 0 180 180" xml:space="preserve">
<defs>
</defs>
<g>
	<path d="M175.048,175.048c-6.603,6.603-17.306,6.603-23.909,0l-29.834-29.835c-12.266,7.869-26.764,12.557-42.419,12.557
		C35.321,157.77,0,122.454,0,78.885S35.321,0,78.885,0c43.57,0,78.885,35.315,78.885,78.885c0,15.649-4.694,30.154-12.557,42.425
		l29.835,29.835C181.651,157.748,181.651,168.445,175.048,175.048z M78.885,22.538c-31.117,0-56.346,25.224-56.346,56.346
		s25.23,56.346,56.346,56.346c31.122,0,56.346-25.224,56.346-56.346C135.231,47.762,110.007,22.538,78.885,22.538z"/>
</g>
</svg>
