<!-- Generator: Adobe Illustrator 17.0.0, SVG Export Plug-In  -->
<svg version="1.1"
	 xmlns="http://www.w3.org/2000/svg" xmlns:xlink="http://www.w3.org/1999/xlink" xmlns:a="http://ns.adobe.com/AdobeSVGViewerExtensions/3.0/"
	 x="0px" y="0px" width="180px" height="176.986px" viewBox="0 0 180 176.986" enable-background="new 0 0 180 176.986"
	 xml:space="preserve">
<defs>
</defs>
<path d="M149.179,115.343c-8.792,0-16.7,3.699-22.314,9.602L61.261,92.826c0.226-1.509,0.381-3.037,0.381-4.609
	c0-1.531-0.148-3.026-0.362-4.494l65.507-31.768c5.618,5.951,13.563,9.687,22.392,9.687c17.021,0,30.821-13.8,30.821-30.821
	C180,13.796,166.2,0,149.179,0s-30.821,13.796-30.821,30.821c0,1.531,0.148,3.022,0.362,4.494L53.213,67.083
	c-5.618-5.951-13.559-9.687-22.392-9.687C13.796,57.396,0,71.196,0,88.217c0,17.025,13.796,30.821,30.821,30.821
	c8.792,0,16.7-3.699,22.314-9.602l65.603,32.119c-0.226,1.505-0.381,3.037-0.381,4.609c0,17.025,13.8,30.821,30.821,30.821
	S180,163.189,180,146.164C180,129.139,166.2,115.343,149.179,115.343z"/>
</svg>
